<?xml version="1.0" encoding="utf-8"?>
<!-- Generator: Adobe Illustrator 26.0.1, SVG Export Plug-In . SVG Version: 6.00 Build 0)  -->
<svg version="1.1" id="Слой_1" xmlns="http://www.w3.org/2000/svg" xmlns:xlink="http://www.w3.org/1999/xlink" x="0px" y="0px"
	 viewBox="0 0 24 24" style="enable-background:new 0 0 24 24;" xml:space="preserve">
<style type="text/css">
	.st0{fill:#FFFFFF;}
	.st1{fill-rule:evenodd;clip-rule:evenodd;fill:url(#SVGID_1_);}
	.st2{fill:url(#SVGID_00000039102509684718960040000017257653799458526880_);}
	.st3{fill:url(#SVGID_00000088841831115162138370000001518616540487562912_);}
</style>
<path class="st0" d="M2,12C2,6.5,6.5,2,12,2c5.5,0,10,4.5,10,10s-4.5,10-10,10C6.5,22,2,17.5,2,12z"/>
<radialGradient id="SVGID_1_" cx="-987.8303" cy="1012.7883" r="1.160058e-02" gradientTransform="matrix(-346.4626 -399.8405 -287.7029 249.2952 -50848.3672 -647443.3125)" gradientUnits="userSpaceOnUse">
	<stop  offset="0" style="stop-color:#00CACC"/>
	<stop  offset="1" style="stop-color:#048FCE"/>
</radialGradient>
<path class="st1" d="M12.1,9.8c-0.2,0-0.4,0.2-0.4,0.4c0,0.1,0,0.1,0.2,0.7c0.5,1.3,0.6,1.6,0.6,1.6c0,0.1,0.1,0.2,0.2,0.3
	c0.1,0.1,0.1,0.1,0.2,0.2c0.1,0.1,0.2,0.1,0.7,0.3c0.5,0.1,0.8,0.2,1,0.4c0.3,0.1,0.5,0.3,0.6,0.5c0.1,0.1,0.2,0.4,0.2,0.7
	c0,0.1,0,0.3,0,0.4c0,0.2-0.1,0.4-0.2,0.5c-0.1,0.1,0,0.1,0,0c0.2-0.3,0.4-0.7,0.5-1.1c0.1-0.5,0.1-1,0.1-1.5
	c-0.2-1-0.8-1.8-1.6-2.2c-0.1,0-0.3-0.1-0.5-0.3c0,0-0.1-0.1-0.1-0.1c0,0-0.1,0-0.1-0.1c0,0-0.2-0.1-0.3-0.1
	c-0.1-0.1-0.2-0.1-0.3-0.1c-0.1-0.1-0.2-0.1-0.3-0.1c-0.3-0.1-0.4-0.2-0.4-0.2C12.2,9.8,12.2,9.8,12.1,9.8
	C12.1,9.8,12.1,9.8,12.1,9.8z"/>
<radialGradient id="SVGID_00000182499813927814605690000008574781912636434091_" cx="-985.6036" cy="1012.5399" r="1.160058e-02" gradientTransform="matrix(526.0025 -225.395 -375.6281 -876.6003 898777.5625 665459.4375)" gradientUnits="userSpaceOnUse">
	<stop  offset="0" style="stop-color:#00BBEC"/>
	<stop  offset="1" style="stop-color:#2756A9"/>
</radialGradient>
<path style="fill:url(#SVGID_00000182499813927814605690000008574781912636434091_);" d="M12.7,14.6C12.7,14.6,12.6,14.6,12.7,14.6
	c-0.1,0-0.1,0.1-0.1,0.1c-0.1,0-0.2,0.2-0.4,0.2c-0.1,0.1-0.1,0.1-0.2,0.2c0,0-0.1,0.1-0.1,0.1c0,0-0.1,0-0.1,0.1
	c-0.1,0-0.2,0.1-0.2,0.1c-0.1,0-0.2,0.1-0.3,0.2c-0.1,0-0.2,0.1-0.2,0.1c0,0-0.1,0.1-0.1,0.1c0,0-0.4,0.3-0.7,0.4
	c-0.2,0.1-0.4,0.2-0.5,0.2c-0.1,0-0.3,0-0.3,0c-0.2,0-0.5-0.1-0.7-0.3c-0.1-0.1-0.2-0.2-0.3-0.3c-0.1-0.2-0.2-0.4-0.3-0.6
	c0,0,0-0.1,0-0.1c0,0,0,0.1,0,0.2c0,0.1,0,0.2,0.1,0.4c0.2,0.9,0.9,1.7,1.8,2.1c0.3,0.1,0.5,0.2,0.8,0.2c0.1,0,0.4,0,0.5,0
	c0.5,0,1-0.2,1.5-0.5c0,0,0.1-0.1,0.2-0.1c0.1,0,0.1-0.1,0.2-0.1c0,0,0.1,0,0.1,0c0,0,0,0,0.1,0c0,0,0.1-0.1,0.2-0.1l0.3-0.2
	l0.1-0.1l0,0l0,0l0,0l0.1-0.1l0.3-0.2c0.4-0.2,0.5-0.3,0.7-0.5c0.1-0.1,0.2-0.2,0.2-0.2c0,0,0,0,0-0.1c0.1-0.1,0.2-0.3,0.2-0.5
	c0-0.1,0-0.3,0-0.4c0-0.2-0.1-0.4-0.2-0.6c-0.1-0.2-0.3-0.4-0.7-0.6c-0.1,0-0.2-0.1-0.2-0.1c0,0-0.3,0.2-0.7,0.4S13,14.4,13,14.4
	c0,0-0.1,0-0.1,0.1L12.7,14.6z"/>
<linearGradient id="SVGID_00000119831218991047200220000000832037102888107444_" gradientUnits="userSpaceOnUse" x1="9.4848" y1="19.9395" x2="9.4848" y2="9.68" gradientTransform="matrix(1 0 0 -1 0 26)">
	<stop  offset="0" style="stop-color:#00BBEC"/>
	<stop  offset="1" style="stop-color:#2756A9"/>
</linearGradient>
<path style="fill:url(#SVGID_00000119831218991047200220000000832037102888107444_);" d="M8.1,13.5l0,1.6l0,0.1
	c0.1,0.3,0.2,0.5,0.4,0.7c0.1,0.1,0.2,0.2,0.3,0.2c0.2,0.1,0.4,0.2,0.7,0.2c0.3,0,0.5-0.1,0.7-0.2c0,0,0.2-0.1,0.4-0.2l0.3-0.2v-2
	v-2l0-1.8c0-1.1,0-1.8,0-1.9c0-0.3-0.2-0.6-0.4-0.9c-0.1-0.1-0.1-0.1-0.3-0.2C10,7,9.9,6.9,9.8,6.8C9.7,6.7,9.5,6.6,9.4,6.5
	C9.2,6.4,9.1,6.3,9,6.2C8.8,6.1,8.8,6.1,8.7,6.1c-0.1,0-0.1,0-0.2,0c-0.2,0-0.4,0.2-0.4,0.4c0,0,0,0.4,0,2.7l0,2.7h0L8.1,13.5z"/>
</svg>
