<?xml version="1.0" encoding="utf-8"?>
<!-- Generator: Adobe Illustrator 26.0.1, SVG Export Plug-In . SVG Version: 6.00 Build 0)  -->
<svg version="1.1" id="Слой_1" xmlns="http://www.w3.org/2000/svg" xmlns:xlink="http://www.w3.org/1999/xlink" x="0px" y="0px"
	 viewBox="0 0 24 24" style="enable-background:new 0 0 24 24;" xml:space="preserve">
<style type="text/css">
	.st0{fill:none;}
	.st1{fill:url(#SVGID_1_);}
	.st2{fill:url(#SVGID_00000103234060169878331720000016327763596923476917_);}
	.st3{fill:url(#SVGID_00000148625759641456539780000017518881432628462761_);}
	.st4{opacity:0.149;}
	.st5{clip-path:url(#SVGID_00000016076356877934191630000006684581285143550346_);}
	.st6{fill:url(#SVGID_00000120541955166774107700000014494496354611212447_);}
	.st7{opacity:9.800000e-02;}
	.st8{clip-path:url(#SVGID_00000149341157320201171410000000380128710549541789_);}
	.st9{fill:url(#SVGID_00000022542273464135291340000010374598519358048429_);}
</style>
<path class="st0" d="M3.7,2.5h16.7v16.7H3.7V2.5z"/>
<linearGradient id="SVGID_1_" gradientUnits="userSpaceOnUse" x1="-979.1038" y1="385.5755" x2="-978.7009" y2="385.8083" gradientTransform="matrix(24.45 0 0 24.45 23949.3301 -9416.8203)">
	<stop  offset="0" style="stop-color:#37BDFF"/>
	<stop  offset="0.18" style="stop-color:#33BFFD"/>
	<stop  offset="0.36" style="stop-color:#28C5F5"/>
	<stop  offset="0.53" style="stop-color:#15D0E9"/>
	<stop  offset="0.55" style="stop-color:#12D1E7"/>
	<stop  offset="0.59" style="stop-color:#1CD2E5"/>
	<stop  offset="0.77" style="stop-color:#42D8DC"/>
	<stop  offset="0.91" style="stop-color:#59DBD6"/>
	<stop  offset="1" style="stop-color:#62DCD4"/>
</linearGradient>
<path class="st1" d="M19.6,15.1c0,1.5-0.6,3-1.6,4.1c0.1-0.1,0.2-0.3,0.3-0.4c0.1-0.1,0.1-0.2,0.2-0.3c0,0,0-0.1,0-0.1
	c0,0,0-0.1,0-0.1c0,0,0-0.1,0-0.1c0,0,0-0.1,0-0.1l0,0c0,0,0-0.1,0-0.1c0,0,0-0.1,0-0.1l0,0c0,0,0-0.1,0-0.1c0-0.1,0-0.2,0-0.3
	c0-0.5-0.1-1-0.4-1.4c-0.1-0.1-0.1-0.2-0.2-0.3c-0.1-0.1-0.2-0.2-0.3-0.3c-0.2-0.2-0.5-0.4-0.8-0.5c-0.1-0.1-0.3-0.1-0.4-0.1h0l0,0
	l-0.7-0.2l0,0l-1.8-0.6c0,0,0,0,0,0l-0.1,0c-0.4-0.1-0.7-0.4-0.9-0.8l-0.7-1.7l-0.8-2L11.5,9l0-0.1c0-0.1-0.1-0.2-0.1-0.3
	c0,0,0-0.1,0-0.1c0-0.5,0.5-0.8,0.9-0.8c0.1,0,0.2,0,0.2,0.1L16,9.6l0.7,0.3c0.4,0.2,0.7,0.5,1,0.7c1.1,1,1.8,2.5,1.9,4
	C19.6,14.9,19.6,15,19.6,15.1z"/>
<linearGradient id="SVGID_00000090264615131877101750000009478508635686300341_" gradientUnits="userSpaceOnUse" x1="-979.3435" y1="385.9223" x2="-978.7573" y2="385.9223" gradientTransform="matrix(24.45 0 0 24.45 23949.3301 -9416.8203)">
	<stop  offset="0" style="stop-color:#39D2FF"/>
	<stop  offset="0.15" style="stop-color:#38CEFE"/>
	<stop  offset="0.29" style="stop-color:#35C3FA"/>
	<stop  offset="0.43" style="stop-color:#2FB0F3"/>
	<stop  offset="0.55" style="stop-color:#299AEB"/>
	<stop  offset="0.58" style="stop-color:#2692EC"/>
	<stop  offset="0.76" style="stop-color:#1A6CF1"/>
	<stop  offset="0.91" style="stop-color:#1355F4"/>
	<stop  offset="1" style="stop-color:#104CF5"/>
</linearGradient>
<path style="fill:url(#SVGID_00000090264615131877101750000009478508635686300341_);" d="M18.7,17.4c0,0.2,0,0.3,0,0.5
	c0,0,0,0.1,0,0.1c0,0.1,0,0.2-0.1,0.2c0,0,0,0.1,0,0.1c0,0,0,0.1,0,0.1c-0.1,0.1-0.1,0.2-0.2,0.3c-0.1,0.1-0.2,0.3-0.3,0.4
	c-0.5,0.6-2.2,1.5-2.8,1.9l-1.4,0.9c-1,0.6-2,1.1-3.2,1.1c-0.1,0-0.1,0-0.2,0c-0.1,0-0.2,0-0.2,0c-2-0.1-3.8-1.1-4.9-2.8
	c-0.5-0.8-0.8-1.6-0.9-2.5C4.6,19.3,6,20.3,7.5,20c0.3-0.1,0.6-0.1,0.8-0.3l0,0l0.1-0.1L9,19.3l0.7-0.4v0l0.1-0.1l6.3-3.7l0.5-0.3
	l0,0h0c0.1,0,0.3,0.1,0.4,0.1c0.3,0.1,0.6,0.3,0.8,0.5c0.1,0.1,0.2,0.2,0.3,0.3c0.1,0.1,0.1,0.2,0.2,0.3
	C18.6,16.5,18.7,17,18.7,17.4z"/>
<linearGradient id="SVGID_00000036229388553154614100000012247182253031207569_" gradientUnits="userSpaceOnUse" x1="-979.2354" y1="385.9818" x2="-979.2354" y2="385.1977" gradientTransform="matrix(24.45 0 0 24.45 23949.3301 -9416.8203)">
	<stop  offset="0" style="stop-color:#1B48EF"/>
	<stop  offset="0.12" style="stop-color:#1C51F0"/>
	<stop  offset="0.32" style="stop-color:#1E69F5"/>
	<stop  offset="0.57" style="stop-color:#2190FB"/>
	<stop  offset="1" style="stop-color:#26B8F4"/>
</linearGradient>
<path style="fill:url(#SVGID_00000036229388553154614100000012247182253031207569_);" d="M9.7,4.9v13.9L9,19.3l-0.6,0.3l-0.1,0.1
	c0,0,0,0,0,0c-1.3,0.7-2.9,0.2-3.6-1.1c-0.1-0.3-0.2-0.5-0.3-0.8c0-0.1,0-0.1,0-0.2c0-0.1,0-0.2,0-0.3V1.6c0-0.5,0.4-0.9,0.9-0.9
	c0.2,0,0.4,0.1,0.5,0.2l2.8,1.8c0,0,0,0,0,0C9.3,3.2,9.7,4.1,9.7,4.9z"/>
<g class="st4">
	<g>
		<defs>
			<rect id="SVGID_00000090996710202226482490000003287412370735228826_" x="4.3" y="14.2" width="14.9" height="9.2"/>
		</defs>
		<clipPath id="SVGID_00000173873417577319627160000002325467107154911158_">
			<use xlink:href="#SVGID_00000090996710202226482490000003287412370735228826_"  style="overflow:visible;"/>
		</clipPath>
		<g style="clip-path:url(#SVGID_00000173873417577319627160000002325467107154911158_);">
			
				<linearGradient id="SVGID_00000026843901678219191600000000499216239399027852_" gradientUnits="userSpaceOnUse" x1="-979.2312" y1="386.071" x2="-978.8689" y2="385.7094" gradientTransform="matrix(24.45 0 0 24.45 23949.3301 -9416.8203)">
				<stop  offset="0" style="stop-color:#FFFFFF"/>
				<stop  offset="0.37" style="stop-color:#FDFDFD"/>
				<stop  offset="0.51" style="stop-color:#F6F6F6"/>
				<stop  offset="0.6" style="stop-color:#EBEBEB"/>
				<stop  offset="0.68" style="stop-color:#DADADA"/>
				<stop  offset="0.75" style="stop-color:#C4C4C4"/>
				<stop  offset="0.81" style="stop-color:#A8A8A8"/>
				<stop  offset="0.86" style="stop-color:#888888"/>
				<stop  offset="0.91" style="stop-color:#626262"/>
				<stop  offset="0.95" style="stop-color:#373737"/>
				<stop  offset="0.99" style="stop-color:#090909"/>
				<stop  offset="1" style="stop-color:#000000"/>
			</linearGradient>
			<path style="fill:url(#SVGID_00000026843901678219191600000000499216239399027852_);" d="M18.7,17.4c0,0.2,0,0.3,0,0.5
				c0,0,0,0.1,0,0.1c0,0.1,0,0.2-0.1,0.2c0,0,0,0.1,0,0.1c0,0,0,0.1,0,0.1c-0.1,0.1-0.1,0.2-0.2,0.3c-0.1,0.1-0.2,0.3-0.3,0.4
				c-0.5,0.6-2.2,1.5-2.8,1.9l-1.4,0.9c-1,0.6-2,1.1-3.2,1.1c-0.1,0-0.1,0-0.2,0c-0.1,0-0.2,0-0.2,0c-2-0.1-3.8-1.1-4.9-2.8
				c-0.5-0.8-0.8-1.6-0.9-2.5C4.6,19.3,6,20.3,7.5,20c0.3-0.1,0.6-0.1,0.8-0.3l0,0l0.1-0.1L9,19.3l0.7-0.4v0l0.1-0.1l6.3-3.7
				l0.5-0.3l0,0h0c0.1,0,0.3,0.1,0.4,0.1c0.3,0.1,0.6,0.3,0.8,0.5c0.1,0.1,0.2,0.2,0.3,0.3c0.1,0.1,0.1,0.2,0.2,0.3
				C18.6,16.5,18.7,17,18.7,17.4z"/>
		</g>
	</g>
</g>
<g class="st7">
	<g>
		<defs>
			<rect id="SVGID_00000168807246471284005270000003744842201461837730_" x="4.3" y="0.7" width="5.7" height="19.8"/>
		</defs>
		<clipPath id="SVGID_00000067929379960005011640000003021333365876132488_">
			<use xlink:href="#SVGID_00000168807246471284005270000003744842201461837730_"  style="overflow:visible;"/>
		</clipPath>
		<g style="clip-path:url(#SVGID_00000067929379960005011640000003021333365876132488_);">
			
				<linearGradient id="SVGID_00000060738783108494793460000015435278459331507621_" gradientUnits="userSpaceOnUse" x1="-979.2354" y1="385.184" x2="-979.2354" y2="385.9738" gradientTransform="matrix(24.45 0 0 24.45 23949.3301 -9416.8203)">
				<stop  offset="0" style="stop-color:#FFFFFF"/>
				<stop  offset="0.37" style="stop-color:#FDFDFD"/>
				<stop  offset="0.51" style="stop-color:#F6F6F6"/>
				<stop  offset="0.6" style="stop-color:#EBEBEB"/>
				<stop  offset="0.68" style="stop-color:#DADADA"/>
				<stop  offset="0.75" style="stop-color:#C4C4C4"/>
				<stop  offset="0.81" style="stop-color:#A8A8A8"/>
				<stop  offset="0.86" style="stop-color:#888888"/>
				<stop  offset="0.91" style="stop-color:#626262"/>
				<stop  offset="0.95" style="stop-color:#373737"/>
				<stop  offset="0.99" style="stop-color:#090909"/>
				<stop  offset="1" style="stop-color:#000000"/>
			</linearGradient>
			<path style="fill:url(#SVGID_00000060738783108494793460000015435278459331507621_);" d="M9.7,4.9v13.9L9,19.3l-0.6,0.3l-0.1,0.1
				c0,0,0,0,0,0c-1.3,0.7-2.9,0.2-3.6-1.1c-0.1-0.3-0.2-0.5-0.3-0.8c0-0.1,0-0.1,0-0.2c0-0.1,0-0.2,0-0.3V1.6c0-0.5,0.4-0.9,0.9-0.9
				c0.2,0,0.4,0.1,0.5,0.2l2.8,1.8c0,0,0,0,0,0C9.3,3.2,9.7,4.1,9.7,4.9z"/>
		</g>
	</g>
</g>
</svg>
