<?xml version="1.0" encoding="utf-8"?>
<!-- Generator: Adobe Illustrator 26.0.1, SVG Export Plug-In . SVG Version: 6.00 Build 0)  -->
<svg version="1.1" id="Слой_1" xmlns="http://www.w3.org/2000/svg" xmlns:xlink="http://www.w3.org/1999/xlink" x="0px" y="0px"
	 viewBox="0 0 24 24" style="enable-background:new 0 0 24 24;" xml:space="preserve">
<style type="text/css">
	.st0{fill:#FFFFFF;}
	.st1{fill:none;}
	.st2{fill:url(#SVGID_1_);}
	.st3{fill:url(#SVGID_00000133490673241545533370000000343317048321442219_);}
	.st4{fill:url(#SVGID_00000111903531791309111330000012002883511938415790_);}
	.st5{opacity:0.149;}
	.st6{clip-path:url(#SVGID_00000088828689484720484100000013900168438811585215_);}
	.st7{fill:url(#SVGID_00000055694930050033409350000007616842136238171052_);}
	.st8{opacity:9.800000e-02;}
	.st9{clip-path:url(#SVGID_00000168094453881905397620000002838292026854822530_);}
	.st10{fill:url(#SVGID_00000136389187359302032750000001689503179037493418_);}
</style>
<path class="st0" d="M2,12C2,6.5,6.5,2,12,2s10,4.5,10,10s-4.5,10-10,10S2,17.5,2,12z"/>
<path class="st1" d="M7.9,7.7h9v8.9h-9V7.7z"/>
<path class="st1" d="M6.9,6.2h10.2v10.2H6.9V6.2z"/>
<linearGradient id="SVGID_1_" gradientUnits="userSpaceOnUse" x1="-977.1609" y1="-363.5197" x2="-976.9168" y2="-363.6607" gradientTransform="matrix(24.45 0 0 -24.45 23902.4297 -8876.9199)">
	<stop  offset="0" style="stop-color:#37BDFF"/>
	<stop  offset="0.18" style="stop-color:#33BFFD"/>
	<stop  offset="0.36" style="stop-color:#28C5F5"/>
	<stop  offset="0.53" style="stop-color:#15D0E9"/>
	<stop  offset="0.55" style="stop-color:#12D1E7"/>
	<stop  offset="0.59" style="stop-color:#1CD2E5"/>
	<stop  offset="0.77" style="stop-color:#42D8DC"/>
	<stop  offset="0.91" style="stop-color:#59DBD6"/>
	<stop  offset="1" style="stop-color:#62DCD4"/>
</linearGradient>
<path class="st2" d="M16.6,13.9c0,1-0.3,1.9-1,2.5c0.1-0.1,0.1-0.1,0.2-0.2c0.1-0.1,0.1-0.1,0.1-0.2v-0.1v-0.1v-0.1v-0.1l0,0v-0.1
	v-0.1l0,0v-0.1c0-0.1,0-0.1,0-0.1c0-0.3-0.1-0.6-0.2-0.8c0-0.1-0.1-0.1-0.1-0.1c-0.1-0.1-0.1-0.1-0.1-0.2c-0.1-0.1-0.3-0.3-0.5-0.3
	c-0.1-0.1-0.1-0.1-0.3-0.1l0,0l0,0l-0.4-0.1l0,0l-1.1-0.4l0,0h-0.1c-0.2-0.1-0.4-0.3-0.5-0.5l-0.4-1l-0.5-1.2l-0.1-0.2v-0.1
	c0-0.1-0.1-0.1-0.1-0.2V10c0-0.3,0.3-0.5,0.5-0.5c0.1,0,0.1,0,0.1,0.1l2.1,1.1l0.4,0.2c0.2,0.1,0.4,0.3,0.6,0.5
	C16,12,16.5,12.9,16.6,13.9C16.5,13.7,16.6,13.9,16.6,13.9z"/>
<linearGradient id="SVGID_00000118393950201387906230000000204732174121029774_" gradientUnits="userSpaceOnUse" x1="-977.3051" y1="-363.7289" x2="-976.95" y2="-363.7289" gradientTransform="matrix(24.45 0 0 -24.45 23902.4297 -8876.9199)">
	<stop  offset="0" style="stop-color:#39D2FF"/>
	<stop  offset="0.15" style="stop-color:#38CEFE"/>
	<stop  offset="0.29" style="stop-color:#35C3FA"/>
	<stop  offset="0.43" style="stop-color:#2FB0F3"/>
	<stop  offset="0.55" style="stop-color:#299AEB"/>
	<stop  offset="0.58" style="stop-color:#2692EC"/>
	<stop  offset="0.76" style="stop-color:#1A6CF1"/>
	<stop  offset="0.91" style="stop-color:#1355F4"/>
	<stop  offset="1" style="stop-color:#104CF5"/>
</linearGradient>
<path style="fill:url(#SVGID_00000118393950201387906230000000204732174121029774_);" d="M16,15.3c0,0.1,0,0.2,0,0.3v0.1
	c0,0.1,0,0.1-0.1,0.1v0.1V16c0,0.1-0.1,0.1-0.1,0.2s-0.1,0.1-0.2,0.2c-0.3,0.3-1.3,1-1.7,1.2L13,18.1c-0.6,0.4-1.2,0.7-1.9,0.7
	c-0.1,0-0.1,0-0.1,0c-0.1,0-0.1,0-0.1,0c-1.2-0.1-2.3-0.7-2.9-1.7c-0.3-0.5-0.5-1-0.5-1.5c0.1,0.9,1,1.5,1.9,1.3
	c0.1,0,0.3-0.1,0.5-0.1l0,0l0.1-0.1l0.3-0.2l0.4-0.3l0,0h0.1l3.8-2.3l0.3-0.2l0,0l0,0c0.1,0,0.1,0.1,0.3,0.1
	c0.2,0.1,0.3,0.2,0.5,0.3c0.1,0.1,0.1,0.1,0.1,0.2c0.1,0.1,0.1,0.1,0.1,0.1C15.9,14.7,16,15,16,15.3z"/>
<linearGradient id="SVGID_00000054976285760954112360000004443802492111549366_" gradientUnits="userSpaceOnUse" x1="-977.2371" y1="-363.7641" x2="-977.2371" y2="-363.2891" gradientTransform="matrix(24.45 0 0 -24.45 23902.4297 -8876.9199)">
	<stop  offset="0" style="stop-color:#1B48EF"/>
	<stop  offset="0.12" style="stop-color:#1C51F0"/>
	<stop  offset="0.32" style="stop-color:#1E69F5"/>
	<stop  offset="0.57" style="stop-color:#2190FB"/>
	<stop  offset="1" style="stop-color:#26B8F4"/>
</linearGradient>
<path style="fill:url(#SVGID_00000054976285760954112360000004443802492111549366_);" d="M10.6,7.7v8.4l-0.4,0.3l-0.3,0.2l-0.1,0.1
	l0,0C8.9,17.1,8,16.9,7.5,16c-0.1-0.1-0.1-0.3-0.1-0.5c0-0.1,0-0.1,0-0.1c0-0.1,0-0.1,0-0.2V5.7c0-0.3,0.3-0.5,0.5-0.5
	c0.1,0,0.2,0,0.3,0.1l1.6,1.1l0,0C10.3,6.7,10.6,7.2,10.6,7.7z"/>
<g class="st5">
	<g>
		<g>
			<defs>
				<rect id="SVGID_00000096760288501254224910000006439810042385171889_" x="7.3" y="13.3" width="9" height="5.6"/>
			</defs>
			<clipPath id="SVGID_00000175288791378120895310000013122752867159196556_">
				<use xlink:href="#SVGID_00000096760288501254224910000006439810042385171889_"  style="overflow:visible;"/>
			</clipPath>
			<g style="clip-path:url(#SVGID_00000175288791378120895310000013122752867159196556_);">
				
					<linearGradient id="SVGID_00000075848991246758893670000015624983635357681039_" gradientUnits="userSpaceOnUse" x1="-977.2369" y1="-363.8185" x2="-977.0173" y2="-363.5993" gradientTransform="matrix(24.45 0 0 -24.45 23902.4297 -8876.9199)">
					<stop  offset="0" style="stop-color:#FFFFFF"/>
					<stop  offset="0.37" style="stop-color:#FDFDFD"/>
					<stop  offset="0.51" style="stop-color:#F6F6F6"/>
					<stop  offset="0.6" style="stop-color:#EBEBEB"/>
					<stop  offset="0.68" style="stop-color:#DADADA"/>
					<stop  offset="0.75" style="stop-color:#C4C4C4"/>
					<stop  offset="0.81" style="stop-color:#A8A8A8"/>
					<stop  offset="0.86" style="stop-color:#888888"/>
					<stop  offset="0.91" style="stop-color:#626262"/>
					<stop  offset="0.95" style="stop-color:#373737"/>
					<stop  offset="0.99" style="stop-color:#090909"/>
					<stop  offset="1" style="stop-color:#000000"/>
				</linearGradient>
				<path style="fill:url(#SVGID_00000075848991246758893670000015624983635357681039_);" d="M16,15.3c0,0.1,0,0.2,0,0.3v0.1
					c0,0.1,0,0.1-0.1,0.1v0.1V16c0,0.1-0.1,0.1-0.1,0.2s-0.1,0.1-0.2,0.2c-0.3,0.3-1.3,1-1.7,1.2L13,18.1c-0.6,0.4-1.2,0.7-1.9,0.7
					c-0.1,0-0.1,0-0.1,0c-0.1,0-0.1,0-0.1,0c-1.2-0.1-2.3-0.7-2.9-1.7c-0.3-0.5-0.5-1-0.5-1.5c0.1,0.9,1,1.5,1.9,1.3
					c0.1,0,0.3-0.1,0.5-0.1l0,0l0.1-0.1l0.3-0.2l0.4-0.3l0,0h0.1l3.8-2.3l0.3-0.2l0,0l0,0c0.1,0,0.1,0.1,0.3,0.1
					c0.2,0.1,0.3,0.2,0.5,0.3c0.1,0.1,0.1,0.1,0.1,0.2c0.1,0.1,0.1,0.1,0.1,0.1C15.9,14.7,16,15,16,15.3z"/>
			</g>
		</g>
	</g>
</g>
<g class="st8">
	<g>
		<g>
			<defs>
				<rect id="SVGID_00000165938016004298798340000009906162673286705048_" x="7.3" y="5.1" width="3.4" height="12"/>
			</defs>
			<clipPath id="SVGID_00000061451124848704747990000017096084241804320654_">
				<use xlink:href="#SVGID_00000165938016004298798340000009906162673286705048_"  style="overflow:visible;"/>
			</clipPath>
			<g style="clip-path:url(#SVGID_00000061451124848704747990000017096084241804320654_);">
				
					<linearGradient id="SVGID_00000121250149000840055400000004784481249840295078_" gradientUnits="userSpaceOnUse" x1="-977.2371" y1="-363.2808" x2="-977.2371" y2="-363.7594" gradientTransform="matrix(24.45 0 0 -24.45 23902.4297 -8876.9199)">
					<stop  offset="0" style="stop-color:#FFFFFF"/>
					<stop  offset="0.37" style="stop-color:#FDFDFD"/>
					<stop  offset="0.51" style="stop-color:#F6F6F6"/>
					<stop  offset="0.6" style="stop-color:#EBEBEB"/>
					<stop  offset="0.68" style="stop-color:#DADADA"/>
					<stop  offset="0.75" style="stop-color:#C4C4C4"/>
					<stop  offset="0.81" style="stop-color:#A8A8A8"/>
					<stop  offset="0.86" style="stop-color:#888888"/>
					<stop  offset="0.91" style="stop-color:#626262"/>
					<stop  offset="0.95" style="stop-color:#373737"/>
					<stop  offset="0.99" style="stop-color:#090909"/>
					<stop  offset="1" style="stop-color:#000000"/>
				</linearGradient>
				<path style="fill:url(#SVGID_00000121250149000840055400000004784481249840295078_);" d="M10.6,7.7v8.4l-0.4,0.3l-0.3,0.2
					l-0.1,0.1l0,0C8.9,17.1,8,16.9,7.5,16c-0.1-0.1-0.1-0.3-0.1-0.5c0-0.1,0-0.1,0-0.1c0-0.1,0-0.1,0-0.2V5.7c0-0.3,0.3-0.5,0.5-0.5
					c0.1,0,0.2,0,0.3,0.1l1.6,1.1l0,0C10.3,6.7,10.6,7.2,10.6,7.7z"/>
			</g>
		</g>
	</g>
</g>
</svg>
