<?xml version="1.0" encoding="utf-8"?>
<!-- Generator: Adobe Illustrator 26.0.1, SVG Export Plug-In . SVG Version: 6.00 Build 0)  -->
<svg version="1.1" id="Слой_1" xmlns="http://www.w3.org/2000/svg" xmlns:xlink="http://www.w3.org/1999/xlink" x="0px" y="0px"
	 viewBox="0 0 24 24" style="enable-background:new 0 0 24 24;" xml:space="preserve">
<style type="text/css">
	.st0{fill:none;}
	.st1{fill:url(#SVGID_1_);}
	.st2{fill:url(#SVGID_00000032623959862706084750000009080445719263947666_);}
	.st3{fill:url(#SVGID_00000097487677655768018230000013856246937822692283_);}
	.st4{opacity:0.149;}
	.st5{clip-path:url(#SVGID_00000020356593825893326600000016766386874028060550_);}
	.st6{fill:url(#SVGID_00000079459622253305174370000012956234991550317714_);}
	.st7{opacity:9.800000e-02;}
	.st8{clip-path:url(#SVGID_00000127734221944457541120000017697404823333080748_);}
	.st9{fill:url(#SVGID_00000071551315959497759540000000272170861036096671_);}
</style>
<path class="st0" d="M5.5,4.6h13.1v13.1H5.5V4.6z"/>
<linearGradient id="SVGID_1_" gradientUnits="userSpaceOnUse" x1="-979.0878" y1="385.5892" x2="-978.7723" y2="385.7715" gradientTransform="matrix(24.45 0 0 24.45 23949.3301 -9416.8203)">
	<stop  offset="0" style="stop-color:#37BDFF"/>
	<stop  offset="0.18" style="stop-color:#33BFFD"/>
	<stop  offset="0.36" style="stop-color:#28C5F5"/>
	<stop  offset="0.53" style="stop-color:#15D0E9"/>
	<stop  offset="0.55" style="stop-color:#12D1E7"/>
	<stop  offset="0.59" style="stop-color:#1CD2E5"/>
	<stop  offset="0.77" style="stop-color:#42D8DC"/>
	<stop  offset="0.91" style="stop-color:#59DBD6"/>
	<stop  offset="1" style="stop-color:#62DCD4"/>
</linearGradient>
<path class="st1" d="M18,14.5c0,1.2-0.5,2.4-1.3,3.2c0.1-0.1,0.2-0.2,0.2-0.3c0.1-0.1,0.1-0.2,0.1-0.3c0,0,0-0.1,0-0.1
	c0,0,0-0.1,0-0.1c0,0,0-0.1,0-0.1c0,0,0-0.1,0-0.1l0,0c0,0,0-0.1,0-0.1c0,0,0-0.1,0-0.1l0,0c0,0,0-0.1,0-0.1c0-0.1,0-0.1,0-0.2
	c0-0.4-0.1-0.8-0.3-1.1c0-0.1-0.1-0.1-0.1-0.2c-0.1-0.1-0.1-0.2-0.2-0.2c-0.2-0.2-0.4-0.3-0.6-0.4c-0.1,0-0.2-0.1-0.3-0.1h0l0,0
	L15.1,14l0,0l-1.4-0.5c0,0,0,0,0,0l-0.1,0c-0.3-0.1-0.5-0.3-0.7-0.6l-0.5-1.4L11.7,10l-0.1-0.3l0-0.1c0-0.1-0.1-0.2-0.1-0.3
	c0,0,0,0,0-0.1c0-0.4,0.4-0.6,0.7-0.6c0.1,0,0.1,0,0.2,0l2.7,1.4l0.5,0.3c0.3,0.2,0.5,0.4,0.8,0.6c0.9,0.8,1.4,2,1.5,3.2
	C18,14.3,18,14.4,18,14.5z"/>
<linearGradient id="SVGID_00000135684732240553785670000008412476957185960583_" gradientUnits="userSpaceOnUse" x1="-979.2755" y1="385.8608" x2="-978.8164" y2="385.8608" gradientTransform="matrix(24.45 0 0 24.45 23949.3301 -9416.8203)">
	<stop  offset="0" style="stop-color:#39D2FF"/>
	<stop  offset="0.15" style="stop-color:#38CEFE"/>
	<stop  offset="0.29" style="stop-color:#35C3FA"/>
	<stop  offset="0.43" style="stop-color:#2FB0F3"/>
	<stop  offset="0.55" style="stop-color:#299AEB"/>
	<stop  offset="0.58" style="stop-color:#2692EC"/>
	<stop  offset="0.76" style="stop-color:#1A6CF1"/>
	<stop  offset="0.91" style="stop-color:#1355F4"/>
	<stop  offset="1" style="stop-color:#104CF5"/>
</linearGradient>
<path style="fill:url(#SVGID_00000135684732240553785670000008412476957185960583_);" d="M17.3,16.3c0,0.1,0,0.3,0,0.4
	c0,0,0,0.1,0,0.1c0,0.1,0,0.1-0.1,0.2c0,0,0,0.1,0,0.1s0,0.1,0,0.1c0,0.1-0.1,0.2-0.1,0.3c-0.1,0.1-0.1,0.2-0.2,0.3
	c-0.4,0.4-1.7,1.2-2.2,1.5l-1.1,0.7c-0.8,0.5-1.6,0.8-2.5,0.9c0,0-0.1,0-0.1,0c-0.1,0-0.1,0-0.2,0c-1.6-0.1-3-0.9-3.8-2.2
	c-0.4-0.6-0.6-1.3-0.7-2c0.2,1.1,1.3,1.9,2.4,1.7c0.2,0,0.4-0.1,0.6-0.2l0,0L9.2,18l0.4-0.3l0.6-0.3v0l0.1,0l5-2.9l0.4-0.2l0,0h0
	c0.1,0,0.2,0.1,0.3,0.1c0.2,0.1,0.4,0.2,0.6,0.4c0.1,0.1,0.1,0.1,0.2,0.2c0.1,0.1,0.1,0.1,0.1,0.2C17.2,15.5,17.3,15.9,17.3,16.3z"
	/>
<linearGradient id="SVGID_00000130627430020208489000000018374432484465232534_" gradientUnits="userSpaceOnUse" x1="-979.1908" y1="385.9073" x2="-979.1908" y2="385.2934" gradientTransform="matrix(24.45 0 0 24.45 23949.3301 -9416.8203)">
	<stop  offset="0" style="stop-color:#1B48EF"/>
	<stop  offset="0.12" style="stop-color:#1C51F0"/>
	<stop  offset="0.32" style="stop-color:#1E69F5"/>
	<stop  offset="0.57" style="stop-color:#2190FB"/>
	<stop  offset="1" style="stop-color:#26B8F4"/>
</linearGradient>
<path style="fill:url(#SVGID_00000130627430020208489000000018374432484465232534_);" d="M10.2,6.5v10.9l-0.6,0.3L9.2,18l-0.1,0.1
	c0,0,0,0,0,0c-1,0.6-2.3,0.2-2.9-0.9C6.2,17,6.1,16.8,6,16.6c0,0,0-0.1,0-0.1c0-0.1,0-0.2,0-0.3V3.9c0-0.4,0.3-0.7,0.7-0.7
	c0.1,0,0.3,0,0.4,0.1l2.2,1.4c0,0,0,0,0,0C9.9,5.1,10.2,5.8,10.2,6.5z"/>
<g class="st4">
	<g>
		<defs>
			<rect id="SVGID_00000118374985124738811260000006418722604421680541_" x="6" y="13.7" width="11.6" height="7.2"/>
		</defs>
		<clipPath id="SVGID_00000118374618187921888510000010917874608290045877_">
			<use xlink:href="#SVGID_00000118374985124738811260000006418722604421680541_"  style="overflow:visible;"/>
		</clipPath>
		<g style="clip-path:url(#SVGID_00000118374618187921888510000010917874608290045877_);">
			
				<linearGradient id="SVGID_00000091708012657502648830000015239243323509490315_" gradientUnits="userSpaceOnUse" x1="-979.1875" y1="385.9772" x2="-978.9038" y2="385.6941" gradientTransform="matrix(24.45 0 0 24.45 23949.3301 -9416.8203)">
				<stop  offset="0" style="stop-color:#FFFFFF"/>
				<stop  offset="0.37" style="stop-color:#FDFDFD"/>
				<stop  offset="0.51" style="stop-color:#F6F6F6"/>
				<stop  offset="0.6" style="stop-color:#EBEBEB"/>
				<stop  offset="0.68" style="stop-color:#DADADA"/>
				<stop  offset="0.75" style="stop-color:#C4C4C4"/>
				<stop  offset="0.81" style="stop-color:#A8A8A8"/>
				<stop  offset="0.86" style="stop-color:#888888"/>
				<stop  offset="0.91" style="stop-color:#626262"/>
				<stop  offset="0.95" style="stop-color:#373737"/>
				<stop  offset="0.99" style="stop-color:#090909"/>
				<stop  offset="1" style="stop-color:#000000"/>
			</linearGradient>
			<path style="fill:url(#SVGID_00000091708012657502648830000015239243323509490315_);" d="M17.3,16.3c0,0.1,0,0.3,0,0.4
				c0,0,0,0.1,0,0.1c0,0.1,0,0.1-0.1,0.2c0,0,0,0.1,0,0.1s0,0.1,0,0.1c0,0.1-0.1,0.2-0.1,0.3c-0.1,0.1-0.1,0.2-0.2,0.3
				c-0.4,0.4-1.7,1.2-2.2,1.5l-1.1,0.7c-0.8,0.5-1.6,0.8-2.5,0.9c0,0-0.1,0-0.1,0c-0.1,0-0.1,0-0.2,0c-1.6-0.1-3-0.9-3.8-2.2
				c-0.4-0.6-0.6-1.3-0.7-2c0.2,1.1,1.3,1.9,2.4,1.7c0.2,0,0.4-0.1,0.6-0.2l0,0L9.2,18l0.4-0.3l0.6-0.3v0l0.1,0l5-2.9l0.4-0.2l0,0h0
				c0.1,0,0.2,0.1,0.3,0.1c0.2,0.1,0.4,0.2,0.6,0.4c0.1,0.1,0.1,0.1,0.2,0.2c0.1,0.1,0.1,0.1,0.1,0.2C17.2,15.5,17.3,15.9,17.3,16.3
				z"/>
		</g>
	</g>
</g>
<g class="st7">
	<g>
		<defs>
			<rect id="SVGID_00000042728520900801814170000013762348712985644188_" x="6" y="3.2" width="4.4" height="15.5"/>
		</defs>
		<clipPath id="SVGID_00000160911554848948437340000011273045896162092672_">
			<use xlink:href="#SVGID_00000042728520900801814170000013762348712985644188_"  style="overflow:visible;"/>
		</clipPath>
		<g style="clip-path:url(#SVGID_00000160911554848948437340000011273045896162092672_);">
			
				<linearGradient id="SVGID_00000133504812077327889060000004110849230218414470_" gradientUnits="userSpaceOnUse" x1="-979.1908" y1="385.2827" x2="-979.1908" y2="385.9011" gradientTransform="matrix(24.45 0 0 24.45 23949.3301 -9416.8203)">
				<stop  offset="0" style="stop-color:#FFFFFF"/>
				<stop  offset="0.37" style="stop-color:#FDFDFD"/>
				<stop  offset="0.51" style="stop-color:#F6F6F6"/>
				<stop  offset="0.6" style="stop-color:#EBEBEB"/>
				<stop  offset="0.68" style="stop-color:#DADADA"/>
				<stop  offset="0.75" style="stop-color:#C4C4C4"/>
				<stop  offset="0.81" style="stop-color:#A8A8A8"/>
				<stop  offset="0.86" style="stop-color:#888888"/>
				<stop  offset="0.91" style="stop-color:#626262"/>
				<stop  offset="0.95" style="stop-color:#373737"/>
				<stop  offset="0.99" style="stop-color:#090909"/>
				<stop  offset="1" style="stop-color:#000000"/>
			</linearGradient>
			<path style="fill:url(#SVGID_00000133504812077327889060000004110849230218414470_);" d="M10.2,6.5v10.9l-0.6,0.3L9.2,18
				l-0.1,0.1c0,0,0,0,0,0c-1,0.6-2.3,0.2-2.9-0.9C6.2,17,6.1,16.8,6,16.6c0,0,0-0.1,0-0.1c0-0.1,0-0.2,0-0.3V3.9
				c0-0.4,0.3-0.7,0.7-0.7c0.1,0,0.3,0,0.4,0.1l2.2,1.4c0,0,0,0,0,0C9.9,5.1,10.2,5.8,10.2,6.5z"/>
		</g>
	</g>
</g>
</svg>
