<?xml version="1.0" encoding="utf-8"?>
<!-- Generator: Adobe Illustrator 26.0.1, SVG Export Plug-In . SVG Version: 6.00 Build 0)  -->
<svg version="1.1" id="Слой_1" xmlns="http://www.w3.org/2000/svg" xmlns:xlink="http://www.w3.org/1999/xlink" x="0px" y="0px"
	 viewBox="0 0 24 24" style="enable-background:new 0 0 24 24;" xml:space="preserve">
<style type="text/css">
	.st0{fill:none;}
	.st1{fill:url(#SVGID_1_);}
	.st2{fill:url(#SVGID_00000078752089226091358510000013951431199067796666_);}
	.st3{fill:url(#SVGID_00000087382539279439706910000015303241552597898427_);}
	.st4{opacity:0.149;}
	.st5{clip-path:url(#SVGID_00000168797308700302363240000005519412240569866388_);}
	.st6{fill:url(#SVGID_00000029009011831332549840000007754281743590845878_);}
	.st7{opacity:9.800000e-02;}
	.st8{clip-path:url(#SVGID_00000173873591908003403880000010948515827538571137_);}
	.st9{fill:url(#SVGID_00000165951690186361878600000006961741157330686343_);}
</style>
<path class="st0" d="M4.7,3.6h14.8v14.8H4.7V3.6z"/>
<linearGradient id="SVGID_1_" gradientUnits="userSpaceOnUse" x1="-979.0952" y1="385.5829" x2="-978.7393" y2="385.7885" gradientTransform="matrix(24.45 0 0 24.45 23949.3301 -9416.8203)">
	<stop  offset="0" style="stop-color:#37BDFF"/>
	<stop  offset="0.18" style="stop-color:#33BFFD"/>
	<stop  offset="0.36" style="stop-color:#28C5F5"/>
	<stop  offset="0.53" style="stop-color:#15D0E9"/>
	<stop  offset="0.55" style="stop-color:#12D1E7"/>
	<stop  offset="0.59" style="stop-color:#1CD2E5"/>
	<stop  offset="0.77" style="stop-color:#42D8DC"/>
	<stop  offset="0.91" style="stop-color:#59DBD6"/>
	<stop  offset="1" style="stop-color:#62DCD4"/>
</linearGradient>
<path class="st1" d="M18.8,14.8c0,1.4-0.5,2.7-1.4,3.6c0.1-0.1,0.2-0.2,0.3-0.3c0.1-0.1,0.1-0.2,0.2-0.3c0,0,0-0.1,0-0.1
	c0,0,0-0.1,0-0.1c0,0,0-0.1,0-0.1c0,0,0-0.1,0-0.1l0,0c0,0,0-0.1,0-0.1c0,0,0-0.1,0-0.1l0,0c0,0,0-0.1,0-0.1c0-0.1,0-0.2,0-0.2
	c0-0.4-0.1-0.9-0.3-1.2c0-0.1-0.1-0.2-0.2-0.2c-0.1-0.1-0.1-0.2-0.2-0.3c-0.2-0.2-0.4-0.4-0.7-0.5c-0.1-0.1-0.2-0.1-0.4-0.1h0l0,0
	l-0.6-0.2l0,0l-1.6-0.6c0,0,0,0,0,0l-0.1,0c-0.3-0.1-0.6-0.4-0.8-0.7l-0.6-1.5l-0.7-1.7l-0.1-0.3l0-0.1c0-0.1-0.1-0.2-0.1-0.3
	c0,0,0-0.1,0-0.1c0-0.4,0.4-0.7,0.8-0.7c0.1,0,0.1,0,0.2,0.1l3,1.6l0.6,0.3c0.3,0.2,0.6,0.4,0.9,0.7c1,0.9,1.6,2.2,1.7,3.6
	C18.7,14.5,18.8,14.7,18.8,14.8z"/>
<linearGradient id="SVGID_00000053510676644493798650000016810433093561407640_" gradientUnits="userSpaceOnUse" x1="-979.3069" y1="385.8893" x2="-978.7891" y2="385.8893" gradientTransform="matrix(24.45 0 0 24.45 23949.3301 -9416.8203)">
	<stop  offset="0" style="stop-color:#39D2FF"/>
	<stop  offset="0.15" style="stop-color:#38CEFE"/>
	<stop  offset="0.29" style="stop-color:#35C3FA"/>
	<stop  offset="0.43" style="stop-color:#2FB0F3"/>
	<stop  offset="0.55" style="stop-color:#299AEB"/>
	<stop  offset="0.58" style="stop-color:#2692EC"/>
	<stop  offset="0.76" style="stop-color:#1A6CF1"/>
	<stop  offset="0.91" style="stop-color:#1355F4"/>
	<stop  offset="1" style="stop-color:#104CF5"/>
</linearGradient>
<path style="fill:url(#SVGID_00000053510676644493798650000016810433093561407640_);" d="M17.9,16.8c0,0.2,0,0.3,0,0.5
	c0,0,0,0.1,0,0.1c0,0.1,0,0.1-0.1,0.2c0,0,0,0.1,0,0.1s0,0.1,0,0.1c0,0.1-0.1,0.2-0.2,0.3c-0.1,0.1-0.2,0.2-0.3,0.3
	c-0.4,0.5-1.9,1.4-2.5,1.7l-1.2,0.8c-0.9,0.6-1.8,1-2.8,1c-0.1,0-0.1,0-0.2,0c-0.1,0-0.1,0-0.2,0c-1.8-0.1-3.4-1-4.3-2.5
	c-0.4-0.7-0.7-1.4-0.8-2.2c0.2,1.3,1.5,2.2,2.8,1.9c0.2,0,0.5-0.1,0.7-0.2l0,0l0.1-0.1l0.5-0.3l0.6-0.4v0l0.1,0l5.6-3.3l0.4-0.3l0,0
	h0c0.1,0,0.2,0.1,0.4,0.1c0.3,0.1,0.5,0.3,0.7,0.5c0.1,0.1,0.2,0.2,0.2,0.3c0.1,0.1,0.1,0.2,0.2,0.2C17.8,16,17.9,16.4,17.9,16.8z"
	/>
<linearGradient id="SVGID_00000175295285947180984780000018433804202972872326_" gradientUnits="userSpaceOnUse" x1="-979.2114" y1="385.9417" x2="-979.2114" y2="385.2491" gradientTransform="matrix(24.45 0 0 24.45 23949.3301 -9416.8203)">
	<stop  offset="0" style="stop-color:#1B48EF"/>
	<stop  offset="0.12" style="stop-color:#1C51F0"/>
	<stop  offset="0.32" style="stop-color:#1E69F5"/>
	<stop  offset="0.57" style="stop-color:#2190FB"/>
	<stop  offset="1" style="stop-color:#26B8F4"/>
</linearGradient>
<path style="fill:url(#SVGID_00000175295285947180984780000018433804202972872326_);" d="M10,5.8v12.3l-0.6,0.4l-0.5,0.3l-0.1,0.1
	c0,0,0,0,0,0c-1.2,0.6-2.6,0.2-3.2-1c-0.1-0.2-0.2-0.5-0.2-0.7c0-0.1,0-0.1,0-0.2c0-0.1,0-0.2,0-0.3V2.8c0-0.4,0.4-0.8,0.8-0.8
	c0.2,0,0.3,0,0.4,0.1l2.4,1.6c0,0,0,0,0,0C9.6,4.2,10,5,10,5.8z"/>
<g class="st4">
	<g>
		<defs>
			<rect id="SVGID_00000117667641153403693950000012189170103986661777_" x="5.2" y="13.9" width="13.1" height="8.1"/>
		</defs>
		<clipPath id="SVGID_00000091011234548377325930000016515155691957873333_">
			<use xlink:href="#SVGID_00000117667641153403693950000012189170103986661777_"  style="overflow:visible;"/>
		</clipPath>
		<g style="clip-path:url(#SVGID_00000091011234548377325930000016515155691957873333_);">
			
				<linearGradient id="SVGID_00000000210661129601259820000002128290251165419936_" gradientUnits="userSpaceOnUse" x1="-979.2078" y1="386.0206" x2="-978.8876" y2="385.7011" gradientTransform="matrix(24.45 0 0 24.45 23949.3301 -9416.8203)">
				<stop  offset="0" style="stop-color:#FFFFFF"/>
				<stop  offset="0.37" style="stop-color:#FDFDFD"/>
				<stop  offset="0.51" style="stop-color:#F6F6F6"/>
				<stop  offset="0.6" style="stop-color:#EBEBEB"/>
				<stop  offset="0.68" style="stop-color:#DADADA"/>
				<stop  offset="0.75" style="stop-color:#C4C4C4"/>
				<stop  offset="0.81" style="stop-color:#A8A8A8"/>
				<stop  offset="0.86" style="stop-color:#888888"/>
				<stop  offset="0.91" style="stop-color:#626262"/>
				<stop  offset="0.95" style="stop-color:#373737"/>
				<stop  offset="0.99" style="stop-color:#090909"/>
				<stop  offset="1" style="stop-color:#000000"/>
			</linearGradient>
			<path style="fill:url(#SVGID_00000000210661129601259820000002128290251165419936_);" d="M17.9,16.8c0,0.2,0,0.3,0,0.5
				c0,0,0,0.1,0,0.1c0,0.1,0,0.1-0.1,0.2c0,0,0,0.1,0,0.1s0,0.1,0,0.1c0,0.1-0.1,0.2-0.2,0.3c-0.1,0.1-0.2,0.2-0.3,0.3
				c-0.4,0.5-1.9,1.4-2.5,1.7l-1.2,0.8c-0.9,0.6-1.8,1-2.8,1c-0.1,0-0.1,0-0.2,0c-0.1,0-0.1,0-0.2,0c-1.8-0.1-3.4-1-4.3-2.5
				c-0.4-0.7-0.7-1.4-0.8-2.2c0.2,1.3,1.5,2.2,2.8,1.9c0.2,0,0.5-0.1,0.7-0.2l0,0l0.1-0.1l0.5-0.3l0.6-0.4v0l0.1,0l5.6-3.3l0.4-0.3
				l0,0h0c0.1,0,0.2,0.1,0.4,0.1c0.3,0.1,0.5,0.3,0.7,0.5c0.1,0.1,0.2,0.2,0.2,0.3c0.1,0.1,0.1,0.2,0.2,0.2
				C17.8,16,17.9,16.4,17.9,16.8z"/>
		</g>
	</g>
</g>
<g class="st7">
	<g>
		<defs>
			<rect id="SVGID_00000010272604897847235070000003287117778933181877_" x="5.2" y="2" width="5" height="17.5"/>
		</defs>
		<clipPath id="SVGID_00000137098024789923078880000011089191202577947560_">
			<use xlink:href="#SVGID_00000010272604897847235070000003287117778933181877_"  style="overflow:visible;"/>
		</clipPath>
		<g style="clip-path:url(#SVGID_00000137098024789923078880000011089191202577947560_);">
			
				<linearGradient id="SVGID_00000101787259022123024300000008619573998732415363_" gradientUnits="userSpaceOnUse" x1="-979.2114" y1="385.237" x2="-979.2114" y2="385.9348" gradientTransform="matrix(24.45 0 0 24.45 23949.3301 -9416.8203)">
				<stop  offset="0" style="stop-color:#FFFFFF"/>
				<stop  offset="0.37" style="stop-color:#FDFDFD"/>
				<stop  offset="0.51" style="stop-color:#F6F6F6"/>
				<stop  offset="0.6" style="stop-color:#EBEBEB"/>
				<stop  offset="0.68" style="stop-color:#DADADA"/>
				<stop  offset="0.75" style="stop-color:#C4C4C4"/>
				<stop  offset="0.81" style="stop-color:#A8A8A8"/>
				<stop  offset="0.86" style="stop-color:#888888"/>
				<stop  offset="0.91" style="stop-color:#626262"/>
				<stop  offset="0.95" style="stop-color:#373737"/>
				<stop  offset="0.99" style="stop-color:#090909"/>
				<stop  offset="1" style="stop-color:#000000"/>
			</linearGradient>
			<path style="fill:url(#SVGID_00000101787259022123024300000008619573998732415363_);" d="M10,5.8v12.3l-0.6,0.4l-0.5,0.3
				l-0.1,0.1c0,0,0,0,0,0c-1.2,0.6-2.6,0.2-3.2-1c-0.1-0.2-0.2-0.5-0.2-0.7c0-0.1,0-0.1,0-0.2c0-0.1,0-0.2,0-0.3V2.8
				c0-0.4,0.4-0.8,0.8-0.8c0.2,0,0.3,0,0.4,0.1l2.4,1.6c0,0,0,0,0,0C9.6,4.2,10,5,10,5.8z"/>
		</g>
	</g>
</g>
</svg>
