<?xml version="1.0" encoding="utf-8"?>
<!-- Generator: Adobe Illustrator 26.0.1, SVG Export Plug-In . SVG Version: 6.00 Build 0)  -->
<svg version="1.1" id="Слой_1" xmlns="http://www.w3.org/2000/svg" xmlns:xlink="http://www.w3.org/1999/xlink" x="0px" y="0px"
	 viewBox="0 0 24 24" style="enable-background:new 0 0 24 24;" xml:space="preserve">
<style type="text/css">
	.st0{fill:#327FF5;}
	.st1{fill:none;}
	.st2{fill:#FFFFFF;}
</style>
<path class="st0" d="M2,12C2,6.5,6.5,2,12,2s10,4.5,10,10s-4.5,10-10,10S2,17.5,2,12z"/>
<path class="st1" d="M7.9,7.7h9v8.9h-9C7.9,16.6,7.9,7.7,7.9,7.7z"/>
<path class="st1" d="M6.9,6.2h10.2v10.2H6.9V6.2z"/>
<path class="st2" d="M16.6,13.9c0,1-0.3,1.9-1,2.5c0.1-0.1-0.6-0.3-0.5-0.4c0.1-0.1,0.8,0.1,0.8,0v-0.1v-0.1v-0.1v-0.1l0,0v-0.1
	v-0.1l0,0v-0.1c0-0.1,0-0.1,0-0.1c0-0.3-0.1-0.6-0.2-0.8c0-0.1-0.1-0.1-0.1-0.1c-0.1-0.1-0.1-0.1-0.1-0.2c-0.1-0.1-0.3-0.3-0.5-0.3
	c-1.3,5.1-0.1-0.1-0.3-0.1l0,0l0,0l-0.4-0.1l0,0l-1.2-0.4c-0.2-0.1-0.4-0.3-0.5-0.5l-0.4-1l-0.5-1.2l-0.1-0.2c0,0-0.1-0.2-0.1-0.3v0
	c0-0.3,0.3-0.5,0.5-0.5c0.1,0,2.2,1.1,2.2,1.1l0.4,0.2c0.2,0.1,0.4,0.3,0.6,0.5C15.9,12.1,16.5,12.9,16.6,13.9
	C16.5,13.7,16.6,13.9,16.6,13.9z"/>
<path class="st2" d="M15.9,15.3c0,0.1,0,0.2,0,0.3v0.1c0,0.1,0.1,0.3,0,0.3l-0.1,0.1l0,0c0,0.1-0.1,0-0.1,0.1s0,0.1-0.1,0.2
	c-0.3,0.3-1.4,1-1.8,1.2l-0.9,0.5c-0.6,0.4-1.2,0.7-1.9,0.7c-0.1,0-0.1,0-0.1,0c-0.1,0-0.1,0-0.1,0c-1.2-0.1-2.3-0.7-2.9-1.7
	c-0.3-0.5-0.5-1-0.5-1.5c0.1,0.9,1,1.5,1.9,1.3c0.1,0,0.3-0.1,0.5-0.1l0,0l0.1-0.1l0.3-0.2l0.3-0.5l0.1,0.2h0.1l3.8-2.3l0.3-0.2l0,0
	l0,0c0.1,0,0.1,0.1,0.3,0.1c0.2,0.1,0.3,0.2,0.5,0.3c0.1,0.1,0.1,0.1,0.1,0.2c0.1,0.1,0.4,0.1,0.4,0.1C16.1,14.7,15.9,15,15.9,15.3z
	"/>
<path class="st2" d="M10.6,7.7l0.1,8.5l-0.4,0.4l-0.2,0.3l-0.3,0L9.7,17c-0.9,0.4-1.8,0-2.2-1c-0.1-0.1-0.1-0.3-0.1-0.5
	c0-0.1,0-0.1,0-0.1c0-0.1,0-0.1,0-0.2V5.7c0-0.3,0.3-0.5,0.5-0.5c0.1,0,0.2,0,0.3,0.1l1.6,1.1l0,0C10.3,6.7,10.6,7.2,10.6,7.7z"/>
</svg>
