<?xml version="1.0" encoding="utf-8"?>
<!-- Generator: Adobe Illustrator 26.0.1, SVG Export Plug-In . SVG Version: 6.00 Build 0)  -->
<svg version="1.1" id="Слой_1" xmlns="http://www.w3.org/2000/svg" xmlns:xlink="http://www.w3.org/1999/xlink" x="0px" y="0px"
	 viewBox="0 0 24 24" style="enable-background:new 0 0 24 24;" xml:space="preserve">
<style type="text/css">
	.st0{fill:#FFFFFF;}
	.st1{fill:none;}
	.st2{fill:url(#SVGID_1_);}
	.st3{fill:url(#SVGID_00000059293330805774159720000005373327661866162091_);}
	.st4{fill:url(#SVGID_00000028292343614751808970000004358512182894249107_);}
	.st5{opacity:0.149;}
	.st6{clip-path:url(#SVGID_00000183231114252463979000000002092926681877886649_);}
	.st7{fill:url(#SVGID_00000049211798953613170210000013775574526322591934_);}
	.st8{opacity:9.800000e-02;}
	.st9{clip-path:url(#SVGID_00000076567452508534425840000002195172067081851012_);}
	.st10{fill:url(#SVGID_00000004506630377459960210000017630396921225923263_);}
</style>
<path class="st0" d="M2,12C2,6.5,6.5,2,12,2s10,4.5,10,10s-4.5,10-10,10S2,17.5,2,12z"/>
<path class="st1" d="M8.4,8.2h7.9V16H8.4V8.2z"/>
<path class="st1" d="M7.6,7h8.9v8.9H7.6V7z"/>
<linearGradient id="SVGID_1_" gradientUnits="userSpaceOnUse" x1="-977.155" y1="-363.5241" x2="-976.9415" y2="-363.6475" gradientTransform="matrix(24.45 0 0 -24.45 23902.4297 -8876.9199)">
	<stop  offset="0" style="stop-color:#37BDFF"/>
	<stop  offset="0.18" style="stop-color:#33BFFD"/>
	<stop  offset="0.36" style="stop-color:#28C5F5"/>
	<stop  offset="0.53" style="stop-color:#15D0E9"/>
	<stop  offset="0.55" style="stop-color:#12D1E7"/>
	<stop  offset="0.59" style="stop-color:#1CD2E5"/>
	<stop  offset="0.77" style="stop-color:#42D8DC"/>
	<stop  offset="0.91" style="stop-color:#59DBD6"/>
	<stop  offset="1" style="stop-color:#62DCD4"/>
</linearGradient>
<path class="st2" d="M16,13.7c0,0.8-0.3,1.6-0.8,2.2c0.1-0.1,0.1-0.1,0.2-0.2c0.1-0.1,0.1-0.1,0.1-0.2v-0.1v-0.1v-0.1v-0.1l0,0v-0.1
	v-0.1l0,0v-0.1c0-0.1,0-0.1,0-0.1c0-0.2-0.1-0.5-0.2-0.7c0-0.1-0.1-0.1-0.1-0.1c-0.1-0.1-0.1-0.1-0.1-0.2c-0.1-0.1-0.2-0.2-0.4-0.3
	c-0.1-0.1-0.1-0.1-0.2-0.1l0,0l0,0L14,13.4l0,0l-1-0.4l0,0H13c-0.2-0.1-0.4-0.2-0.5-0.4l-0.4-0.9l-0.4-1l-0.1-0.2v-0.1
	c0-0.1-0.1-0.1-0.1-0.2v-0.1c0-0.2,0.2-0.4,0.5-0.4c0.1,0,0.1,0,0.1,0.1l1.8,1l0.4,0.2c0.2,0.1,0.4,0.2,0.5,0.4
	C15.5,12,15.9,12.8,16,13.7C16,13.5,16,13.6,16,13.7z"/>
<linearGradient id="SVGID_00000142143295786249080800000013304429349292425366_" gradientUnits="userSpaceOnUse" x1="-977.2811" y1="-363.7072" x2="-976.9705" y2="-363.7072" gradientTransform="matrix(24.45 0 0 -24.45 23902.4297 -8876.9199)">
	<stop  offset="0" style="stop-color:#39D2FF"/>
	<stop  offset="0.15" style="stop-color:#38CEFE"/>
	<stop  offset="0.29" style="stop-color:#35C3FA"/>
	<stop  offset="0.43" style="stop-color:#2FB0F3"/>
	<stop  offset="0.55" style="stop-color:#299AEB"/>
	<stop  offset="0.58" style="stop-color:#2692EC"/>
	<stop  offset="0.76" style="stop-color:#1A6CF1"/>
	<stop  offset="0.91" style="stop-color:#1355F4"/>
	<stop  offset="1" style="stop-color:#104CF5"/>
</linearGradient>
<path style="fill:url(#SVGID_00000142143295786249080800000013304429349292425366_);" d="M15.5,14.9c0,0.1,0,0.2,0,0.3v0.1
	c0,0.1,0,0.1-0.1,0.1v0.1v0.1c0,0.1-0.1,0.1-0.1,0.2c-0.1,0.1-0.1,0.1-0.2,0.2c-0.2,0.3-1.1,0.8-1.5,1l-0.7,0.5
	c-0.5,0.4-1.1,0.6-1.7,0.6c-0.1,0-0.1,0-0.1,0c-0.1,0-0.1,0-0.1,0c-1.1-0.1-2-0.6-2.6-1.5C8.2,16,8,15.6,7.9,15.1
	c0.1,0.8,0.9,1.3,1.7,1.1c0.1,0,0.3-0.1,0.4-0.1l0,0l0.1-0.1l0.3-0.2l0.4-0.2l0,0h0.1l3.4-2l0.2-0.2l0,0l0,0c0.1,0,0.1,0.1,0.2,0.1
	c0.2,0.1,0.3,0.2,0.4,0.3c0.1,0.1,0.1,0.1,0.1,0.2c0.1,0.1,0.1,0.1,0.1,0.1C15.4,14.4,15.5,14.6,15.5,14.9z"/>
<linearGradient id="SVGID_00000120554788460332693590000009808233024315413893_" gradientUnits="userSpaceOnUse" x1="-977.2217" y1="-363.7379" x2="-977.2217" y2="-363.3224" gradientTransform="matrix(24.45 0 0 -24.45 23902.4297 -8876.9199)">
	<stop  offset="0" style="stop-color:#1B48EF"/>
	<stop  offset="0.12" style="stop-color:#1C51F0"/>
	<stop  offset="0.32" style="stop-color:#1E69F5"/>
	<stop  offset="0.57" style="stop-color:#2190FB"/>
	<stop  offset="1" style="stop-color:#26B8F4"/>
</linearGradient>
<path style="fill:url(#SVGID_00000120554788460332693590000009808233024315413893_);" d="M10.7,8.3v7.4l-0.4,0.2l-0.3,0.2L10,16.1
	l0,0c-0.7,0.4-1.6,0.1-1.9-0.6C8,15.4,8,15.2,8,15.1c0-0.1,0-0.1,0-0.1s0-0.1,0-0.2V6.5C8,6.2,8.2,6,8.5,6c0.1,0,0.2,0,0.2,0.1
	l1.4,1l0,0C10.5,7.3,10.7,7.8,10.7,8.3z"/>
<g class="st5">
	<g>
		<g>
			<defs>
				<rect id="SVGID_00000024685742082975625290000008827832520105537699_" x="7.9" y="13.1" width="7.9" height="4.9"/>
			</defs>
			<clipPath id="SVGID_00000130639982104378167100000012790862416734072197_">
				<use xlink:href="#SVGID_00000024685742082975625290000008827832520105537699_"  style="overflow:visible;"/>
			</clipPath>
			<g style="clip-path:url(#SVGID_00000130639982104378167100000012790862416734072197_);">
				
					<linearGradient id="SVGID_00000067195381054414221050000007263855234013676678_" gradientUnits="userSpaceOnUse" x1="-977.2215" y1="-363.7855" x2="-977.0294" y2="-363.5938" gradientTransform="matrix(24.45 0 0 -24.45 23902.4297 -8876.9199)">
					<stop  offset="0" style="stop-color:#FFFFFF"/>
					<stop  offset="0.37" style="stop-color:#FDFDFD"/>
					<stop  offset="0.51" style="stop-color:#F6F6F6"/>
					<stop  offset="0.6" style="stop-color:#EBEBEB"/>
					<stop  offset="0.68" style="stop-color:#DADADA"/>
					<stop  offset="0.75" style="stop-color:#C4C4C4"/>
					<stop  offset="0.81" style="stop-color:#A8A8A8"/>
					<stop  offset="0.86" style="stop-color:#888888"/>
					<stop  offset="0.91" style="stop-color:#626262"/>
					<stop  offset="0.95" style="stop-color:#373737"/>
					<stop  offset="0.99" style="stop-color:#090909"/>
					<stop  offset="1" style="stop-color:#000000"/>
				</linearGradient>
				<path style="fill:url(#SVGID_00000067195381054414221050000007263855234013676678_);" d="M15.5,14.9c0,0.1,0,0.2,0,0.3v0.1
					c0,0.1,0,0.1-0.1,0.1v0.1v0.1c0,0.1-0.1,0.1-0.1,0.2c-0.1,0.1-0.1,0.1-0.2,0.2c-0.2,0.3-1.1,0.8-1.5,1l-0.7,0.5
					c-0.5,0.4-1.1,0.6-1.7,0.6c-0.1,0-0.1,0-0.1,0c-0.1,0-0.1,0-0.1,0c-1.1-0.1-2-0.6-2.6-1.5C8.2,16,8,15.6,7.9,15.1
					c0.1,0.8,0.9,1.3,1.7,1.1c0.1,0,0.3-0.1,0.4-0.1l0,0l0.1-0.1l0.3-0.2l0.4-0.2l0,0h0.1l3.4-2l0.2-0.2l0,0l0,0
					c0.1,0,0.1,0.1,0.2,0.1c0.2,0.1,0.3,0.2,0.4,0.3c0.1,0.1,0.1,0.1,0.1,0.2c0.1,0.1,0.1,0.1,0.1,0.1
					C15.4,14.4,15.5,14.6,15.5,14.9z"/>
			</g>
		</g>
	</g>
</g>
<g class="st8">
	<g>
		<g>
			<defs>
				<rect id="SVGID_00000140735315968091948020000001196099131114454439_" x="7.9" y="6" width="3" height="10.5"/>
			</defs>
			<clipPath id="SVGID_00000116920424376757345800000002104622682431648174_">
				<use xlink:href="#SVGID_00000140735315968091948020000001196099131114454439_"  style="overflow:visible;"/>
			</clipPath>
			<g style="clip-path:url(#SVGID_00000116920424376757345800000002104622682431648174_);">
				
					<linearGradient id="SVGID_00000129906647630055532660000001712809892262906550_" gradientUnits="userSpaceOnUse" x1="-977.2217" y1="-363.3151" x2="-977.2217" y2="-363.7338" gradientTransform="matrix(24.45 0 0 -24.45 23902.4297 -8876.9199)">
					<stop  offset="0" style="stop-color:#FFFFFF"/>
					<stop  offset="0.37" style="stop-color:#FDFDFD"/>
					<stop  offset="0.51" style="stop-color:#F6F6F6"/>
					<stop  offset="0.6" style="stop-color:#EBEBEB"/>
					<stop  offset="0.68" style="stop-color:#DADADA"/>
					<stop  offset="0.75" style="stop-color:#C4C4C4"/>
					<stop  offset="0.81" style="stop-color:#A8A8A8"/>
					<stop  offset="0.86" style="stop-color:#888888"/>
					<stop  offset="0.91" style="stop-color:#626262"/>
					<stop  offset="0.95" style="stop-color:#373737"/>
					<stop  offset="0.99" style="stop-color:#090909"/>
					<stop  offset="1" style="stop-color:#000000"/>
				</linearGradient>
				<path style="fill:url(#SVGID_00000129906647630055532660000001712809892262906550_);" d="M10.7,8.3v7.4l-0.4,0.2l-0.3,0.2
					L10,16.1l0,0c-0.7,0.4-1.6,0.1-1.9-0.6C8,15.4,8,15.2,8,15.1c0-0.1,0-0.1,0-0.1s0-0.1,0-0.2V6.5C8,6.2,8.2,6,8.5,6
					c0.1,0,0.2,0,0.2,0.1l1.4,1l0,0C10.5,7.3,10.7,7.8,10.7,8.3z"/>
			</g>
		</g>
	</g>
</g>
</svg>
