<?xml version="1.0" encoding="utf-8"?>
<!-- Generator: Adobe Illustrator 26.0.1, SVG Export Plug-In . SVG Version: 6.00 Build 0)  -->
<svg version="1.1" id="Слой_1" xmlns="http://www.w3.org/2000/svg" xmlns:xlink="http://www.w3.org/1999/xlink" x="0px" y="0px"
	 viewBox="0 0 24 24" style="enable-background:new 0 0 24 24;" xml:space="preserve">
<style type="text/css">
	.st0{fill:#327FF5;}
	.st1{fill:none;}
	.st2{fill:#FFFFFF;}
</style>
<path class="st0" d="M2,12C2,6.5,6.5,2,12,2s10,4.5,10,10s-4.5,10-10,10S2,17.5,2,12z"/>
<path class="st1" d="M8.4,8.2h7.9V16H8.4V8.2z"/>
<path class="st2" d="M15.7,11.5c-0.2-0.2-0.3-0.2-0.5-0.4l-0.4-0.3c0,0-1.9-1-2-1c-0.2,0-0.4,0.2-0.4,0.4c0,0.1,0.2,0.4,0.2,0.4
	l0.4,1.1l0.4,0.9c0.1,0.2,0.3,0.4,0.4,0.4l1.1,0.4l0.4,0.1c0,0,0,0,0,0c0,0,0,0,0,0l-0.2,0.1l-3.4,2.1l-0.1-7.6
	c0-0.4-0.3-0.9-0.7-1.2l-1.4-1C9.3,6,9.2,6,9.1,6C9,6,8.7,6.2,8.7,6.4V15c0,0.1,0,0.5,0,0.5c0,0.4,0.2,0.8,0.4,1.2
	c0.5,0.9,1.5,1.4,2.6,1.5c0,0,0.1,0,0.2,0c0.6,0,3.9-1.9,4.1-2.2c0.6-0.5,0.9-1.3,0.9-2.2C16.9,12.9,16.3,12.2,15.7,11.5z"/>
</svg>
