<?xml version="1.0" encoding="utf-8"?>
<!-- Generator: Adobe Illustrator 26.0.1, SVG Export Plug-In . SVG Version: 6.00 Build 0)  -->
<svg version="1.1" id="Layer_1" xmlns="http://www.w3.org/2000/svg" xmlns:xlink="http://www.w3.org/1999/xlink" x="0px" y="0px"
	 viewBox="0 0 390.7 390.7" style="enable-background:new 0 0 390.7 390.7;" xml:space="preserve">
<style type="text/css">
	.st0{fill:#F25936;}
	.st1{fill:#FFFFFF;}
	.st2{fill-rule:evenodd;clip-rule:evenodd;fill:#FED30A;}
	.st3{fill:#2D4F8D;}
	.st4{fill:#D5D7D8;}
	.st5{fill:#67BD47;}
	.st6{fill:#43A347;}
</style>
<g id="g186" transform="translate(-24.5 -19)">
	<g id="g178">
		<g id="g134">
			<circle id="circle105" class="st0" cx="219.9" cy="214.4" r="195.4"/>
			<path id="path107" class="st1" d="M385.3,144.4c-9.1-21.5-22.1-40.7-38.4-57c-16.6-16.6-35.8-29.3-57-38.4
				c-22.1-9.4-45.6-14-70-14c-24.1,0-47.9,4.9-70,14c-21.5,8.8-40.7,21.8-57,38.4c-16.6,16.6-29.3,35.8-38.4,57
				c-9.4,22.1-14,45.6-14,70s4.9,47.9,14,70c9.1,21.5,22.1,40.7,38.4,57c16.6,16.6,35.8,29.3,57,38.4c22.1,9.4,45.6,14,70,14
				c24.1,0,47.9-4.9,70-14c21.2-9.1,40.4-22.1,57-38.4c16.6-16.6,29.3-35.8,38.4-57c9.4-22.1,14-45.6,14-70S394.7,166.5,385.3,144.4
				z M258.9,375.5c-10.4-17.6-37.8-66.7-37.8-103.2c0-84,56.3-12,56.3-79.1c0-16-7.8-72-56.7-83.7c-12-16-40.4-31.3-85.3-25.1
				c0,0,7.5,2.3,16,6.5c0,0-16.3,2.3-16.9,13.3c0,0,32.2-1.6,50.5,4.2c-42,5.5-63.5,27.7-59.6,67.7c5.5,57,29.6,158.6,38.1,194.1
				c-63.8-22.8-109.7-84-109.7-156c0-91.5,74.2-166.1,166.1-166.1s166.1,74.2,166.1,166.1C385.6,292.5,331.5,357.9,258.9,375.5z"/>
			<path id="Beak_2_" class="st2" d="M210.7,241.4c0-21.5,29.3-28.3,40.4-28.3c30,0,72.3-19.2,82.7-18.9c10.7,0.3,17.6,4.6,17.6,9.4
				c0,7.2-59.9,34.2-83,31.9c-22.1-2-27.4,0.3-27.4,9.4c0,7.8,16,15,33.5,15c26.4,0,52.1-11.7,59.9-6.2c6.8,4.9-17.9,22.5-46.2,22.5
				C259.9,276.2,210.7,262.9,210.7,241.4L210.7,241.4z"/>
			<g id="g118">
				<path id="path110" class="st3" d="M262.8,150.2c-7.8-10.1-21.8-10.4-26.7,1.3C243.6,145.7,252.7,144.4,262.8,150.2z"/>
				<path id="path112" class="st3" d="M175.9,150.5c-10.7-6.5-28.7-7.2-27.7,13.3C153.4,151.2,160.6,148.9,175.9,150.5z"/>
				<path id="path114" class="st3" d="M256.3,169.4c-5.9,0-10.7,4.9-10.7,10.7c0,5.9,4.9,10.7,10.7,10.7s10.7-4.9,10.7-10.7
					C267.1,174.3,262.2,169.4,256.3,169.4z M260.2,179.5c-1.6,0-3.3-1.3-3.3-3.3c0-1.6,1.3-3.3,3.3-3.3s3.3,1.3,3.3,3.3
					C263.2,177.9,261.9,179.5,260.2,179.5z"/>
				<path id="path116" class="st3" d="M173,175.3c-6.8,0-12.4,5.5-12.4,12.4c0,6.8,5.5,12.4,12.4,12.4c6.8,0,12.4-5.5,12.4-12.4
					C185.3,180.8,179.8,175.3,173,175.3z M177.5,186.7c-2,0-3.6-1.6-3.6-3.6s1.6-3.6,3.6-3.6c2,0,3.6,1.6,3.6,3.6
					S179.5,186.7,177.5,186.7z"/>
			</g>
			<g id="g126">
				<path id="path120" class="st4" d="M145.9,122.5c-15.6,11.4-22.8,29-20.5,53.7c5.5,57,29.6,158.9,38.1,194.4l8.8,2.9
					c-5.2-21.5-30.3-126.3-41.4-206.8C128,145.3,136.5,132.6,145.9,122.5L145.9,122.5z"/>
				<path id="path122" class="st4" d="M184.7,108.5c1.3,0,2.3-0.3,2.3-0.3c-16.9-8.1-43.6-8.5-50.8-8.5c-0.7,1.3-1.3,2.9-1.3,4.6
					C134.6,104.6,166.1,102.7,184.7,108.5L184.7,108.5z"/>
				<path id="path124" class="st4" d="M154.1,91c-5.2-3.6-9.4-5.9-12-7.2c-2.3,0.3-4.2,0.3-6.5,0.7c0,0,7.5,2.3,16,6.5h-0.7H154.1
					L154.1,91z"/>
			</g>
			<g id="g132">
				<path id="path128" class="st5" d="M285.3,307.5c-5.5-1.3-27,14-35.2,19.9c-0.3-1.6-0.7-2.9-1-3.6c-1-3.3-21.8-1.3-26.7,3.9
					c-13-6.2-39.1-18.2-39.4-10.7c-1,9.8,0,50.5,5.2,53.4c3.9,2.3,26-9.8,37.1-16h0.3c6.8,1.6,19.5,0,24.1-2.9c0.7-0.3,1-1,1.3-1.6
					c10.1,3.9,31.9,11.7,36.5,10.1C293.4,358.3,292.1,309.1,285.3,307.5L285.3,307.5z"/>
				<path id="path130" class="st6" d="M225.7,354.4c-6.8-1.3-4.6-8.1-4.6-24.1c-1.6,1-2.9,2.3-2.9,3.6c0,16-2.6,23.1,4.6,24.1
					c6.8,1.6,19.5,0,24.7-2.9c1-0.7,1.3-1.6,1.6-3.3C244.3,354.7,232.2,356,225.7,354.4z"/>
			</g>
		</g>
	</g>
</g>
</svg>
