<?xml version="1.0" encoding="utf-8"?>
<!-- Generator: Adobe Illustrator 26.0.1, SVG Export Plug-In . SVG Version: 6.00 Build 0)  -->
<svg version="1.1" id="Слой_1" xmlns="http://www.w3.org/2000/svg" xmlns:xlink="http://www.w3.org/1999/xlink" x="0px" y="0px"
	 viewBox="0 0 24 24" style="enable-background:new 0 0 24 24;" xml:space="preserve">
<style type="text/css">
	.st0{fill:#4285F4;}
	.st1{fill:#34A853;}
	.st2{fill:#FBBC05;}
	.st3{fill:#EA4335;}
	.st4{fill:none;}
</style>
<path class="st0" d="M21.7,12.2c0-0.8,0-1.4-0.2-2h-9.5V14h5.4c-0.3,1.2-0.9,2.3-2,3.1v2.6h3.2C20.7,17.8,21.7,15.2,21.7,12.2z"/>
<path class="st1" d="M12.1,22c2.8,0,4.9-0.9,6.6-2.5l-3.2-2.5c-0.9,0.6-2,0.9-3.4,0.9c-2.6,0-4.8-1.7-5.7-4.2H3.1v2.6
	C4.8,19.8,8.2,22,12.1,22z"/>
<path class="st2" d="M6.5,13.8c-0.2-0.6-0.3-1.2-0.3-1.8s0.2-1.4,0.3-1.8V7.5H3.1C2.5,8.8,2.1,10.3,2.1,12s0.5,3.2,1.1,4.5l2.6-2
	C5.7,14.5,6.5,13.8,6.5,13.8z"/>
<path class="st3" d="M12.1,6c1.5,0,2.8,0.5,3.8,1.5l2.9-2.9c-1.7-1.7-4-2.6-6.8-2.6c-4,0-7.4,2.3-8.9,5.5l3.4,2.6
	C7.3,7.7,9.4,6,12.1,6z"/>
<path class="st4" d="M5.5,5.5h13.1v13.1H5.5V5.5z"/>
</svg>
