<?xml version="1.0" encoding="utf-8"?>
<!-- Generator: Adobe Illustrator 26.0.1, SVG Export Plug-In . SVG Version: 6.00 Build 0)  -->
<svg version="1.1" id="Слой_1" xmlns="http://www.w3.org/2000/svg" xmlns:xlink="http://www.w3.org/1999/xlink" x="0px" y="0px"
	 viewBox="0 0 24 24" style="enable-background:new 0 0 24 24;" xml:space="preserve">
<style type="text/css">
	.st0{fill:#F9F9F9;}
	.st1{fill:#4285F4;}
	.st2{fill:#34A853;}
	.st3{fill:#FBBC05;}
	.st4{fill:#EA4335;}
	.st5{fill:none;}
</style>
<path class="st0" d="M2,12C2,6.5,6.5,2,12,2c5.5,0,10,4.5,10,10s-4.5,10-10,10C6.5,22,2,17.5,2,12z"/>
<path class="st1" d="M18.3,12.1c0-0.5,0-0.9-0.1-1.3H12v2.5h3.5c-0.2,0.8-0.6,1.5-1.3,2V17h2.1C17.6,15.8,18.3,14.1,18.3,12.1z"/>
<path class="st2" d="M12,18.5c1.8,0,3.2-0.6,4.3-1.6l-2.1-1.6c-0.6,0.4-1.3,0.6-2.2,0.6c-1.7,0-3.1-1.1-3.7-2.7H6.2v1.7
	C7.3,17.1,9.5,18.5,12,18.5z"/>
<path class="st3" d="M8.4,13.2c-0.1-0.4-0.2-0.8-0.2-1.2s0.1-0.9,0.2-1.2V9.1H6.2C5.8,9.9,5.5,10.9,5.5,12s0.3,2.1,0.7,2.9l1.7-1.3
	C7.9,13.6,8.4,13.2,8.4,13.2z"/>
<path class="st4" d="M12,8.1c1,0,1.8,0.3,2.5,1l1.9-1.9c-1.1-1.1-2.6-1.7-4.4-1.7c-2.6,0-4.8,1.5-5.8,3.6l2.2,1.7
	C8.9,9.2,10.3,8.1,12,8.1z"/>
<path class="st5" d="M5.5,5.5h13.1v13.1H5.5V5.5z"/>
</svg>
